HIERARCHY
ROOT Hips
{
 OFFSET 0.000000 0.000000 0.000000
 CHANNELS 6 Xposition Yposition Zposition Yrotation Xrotation Zrotation
 JOINT Chest
 {
  OFFSET 0.000000 9.585900 0.002600
  CHANNELS 3 Yrotation Xrotation Zrotation
  JOINT Chest2
  {
   OFFSET 0.000000 9.601200 -0.005300
   CHANNELS 3 Yrotation Xrotation Zrotation
   JOINT Chest3
   {
    OFFSET 0.000000 9.561800 0.000000
    CHANNELS 3 Yrotation Xrotation Zrotation
    JOINT Chest4
    {
     OFFSET 0.000000 9.552100 0.000000
     CHANNELS 3 Yrotation Xrotation Zrotation
     JOINT Neck
     {
      OFFSET 0.000000 14.453000 0.000000
      CHANNELS 3 Yrotation Xrotation Zrotation
      JOINT Head
      {
       OFFSET 0.000000 8.936500 -0.011300
       CHANNELS 3 Yrotation Xrotation Zrotation
       End Site
       {
        OFFSET 0.000000 17.073600 -0.006000
       }
      }
     }
     JOINT RightCollar
     {
      OFFSET -2.921100 9.558500 0.000000
      CHANNELS 3 Yrotation Xrotation Zrotation
      JOINT RightShoulder
      {
       OFFSET -13.519700 0.000000 0.000000
       CHANNELS 3 Yrotation Xrotation Zrotation
       JOINT RightElbow
       {
        OFFSET 0.000000 -29.696600 0.000000
        CHANNELS 3 Yrotation Xrotation Zrotation
        JOINT RightWrist
        {
         OFFSET 0.000000 -24.004700 0.000000
         CHANNELS 3 Yrotation Xrotation Zrotation
         End Site
         {
          OFFSET 0.000000 -17.728500 0.000000
         }
        }
       }
      }
     }
     JOINT LeftCollar
     {
      OFFSET 2.921100 9.558500 0.000000
      CHANNELS 3 Yrotation Xrotation Zrotation
      JOINT LeftShoulder
      {
       OFFSET 13.519700 0.000000 0.000000
       CHANNELS 3 Yrotation Xrotation Zrotation
       JOINT LeftElbow
       {
        OFFSET 0.000000 -29.696600 0.000000
        CHANNELS 3 Yrotation Xrotation Zrotation
        JOINT LeftWrist
        {
         OFFSET 0.000000 -24.004700 0.000000
         CHANNELS 3 Yrotation Xrotation Zrotation
         End Site
         {
          OFFSET 0.000000 -17.728500 0.000000
         }
        }
       }
      }
     }
    }
   }
  }
 }
 JOINT RightHip
 {
  OFFSET -7.771700 -0.012900 -0.001300
  CHANNELS 3 Yrotation Xrotation Zrotation
  JOINT RightKnee
  {
   OFFSET 0.000000 -40.869800 0.001200
   CHANNELS 3 Yrotation Xrotation Zrotation
   JOINT RightAnkle
   {
    OFFSET 0.000000 -39.717900 0.002100
    CHANNELS 3 Yrotation Xrotation Zrotation
    JOINT RightToe
    {
     OFFSET 0.000000 -4.965400 11.033500
     CHANNELS 3 Yrotation Xrotation Zrotation
     End Site
     {
      OFFSET 0.000000 -1.423100 5.872300
     }
    }
   }
  }
 }
 JOINT LeftHip
 {
  OFFSET 7.771700 -0.012900 -0.001300
  CHANNELS 3 Yrotation Xrotation Zrotation
  JOINT LeftKnee
  {
   OFFSET 0.000000 -40.869800 0.001200
   CHANNELS 3 Yrotation Xrotation Zrotation
   JOINT LeftAnkle
   {
    OFFSET 0.000000 -39.717900 0.002100
    CHANNELS 3 Yrotation Xrotation Zrotation
    JOINT LeftToe
    {
     OFFSET 0.000000 -4.965400 11.033500
     CHANNELS 3 Yrotation Xrotation Zrotation
     End Site
     {
      OFFSET 0.000000 -1.423100 5.872300
     }
    }
   }
  }
 }
}
MOTION
Frames: 7
Frame Time: 0.008333
0.000000 85.388000 0.000000 0.000000 -5.767877 0.000000 0.000000 11.653817 0.000000 0.000000 -5.885947 0.000000 0.000000 -0.000000 0.000000 0.000000 -0.000000 0.000000 0.000000 12.528835 0.000000 0.000000 0.711642 0.000000 0.000000 -0.000000 0.000000 0.000000 0.000000 -90.000000 0.000000 -2.309062 0.000000 0.000000 2.309062 0.000000 0.000000 -0.000000 0.000000 0.000000 -0.000000 90.000000 0.000000 -2.309062 0.000000 0.000000 2.309062 0.000000 0.000000 8.520406 0.000000 0.000000 1.905762 0.000000 -0.000000 -4.658285 0.000000 0.000000 -0.000000 0.000000 0.000000 8.520406 0.000000 0.000000 1.905762 0.000000 -0.000000 -4.658285 0.000000 0.000000 -0.000000 0.000000
-4.937784 52.173477 30.796117 169.401010 -36.577432 -1.633912 5.084523 25.578702 3.528661 0.633204 4.277595 0.586805 1.043188 6.758369 0.978724 3.730441 21.034883 3.537505 7.160455 18.106966 0.772892 12.894103 -1.916820 -0.911978 -5.671251 1.074984 -2.873385 -3.219701 -8.543737 0.552304 -157.527948 -67.254023 174.033687 4.152108 2.322867 22.534453 -12.248441 3.408994 0.601369 -0.968682 -40.036225 8.280089 -122.970472 -58.830367 125.983817 -8.925489 -29.540591 32.521123 -4.213807 -45.144245 4.012172 -114.283097 85.390454 -110.157870 -0.583969 -8.731228 -3.210925 0.617411 -1.088824 0.290094 0.720715 -41.285279 5.706049 70.464047 84.720741 60.261122 -3.959306 -12.134511 11.193780 0.078919 1.078450 -0.031390
-4.941733 52.173327 30.781917 169.405995 -36.613050 -1.641939 5.087334 25.593123 3.547973 0.637027 4.258178 0.596962 1.036739 6.772925 0.974400 3.729691 21.043032 3.537269 7.177895 18.192016 0.789157 12.902699 -1.726013 -0.896855 -5.672541 1.094890 -2.872045 -3.192856 -8.533278 0.530423 -157.654661 -67.257371 174.173348 4.175089 2.275903 22.355049 -12.236422 3.442941 0.615267 -0.949930 -39.869248 8.342868 -123.593136 -58.605237 126.584727 -9.131643 -30.630073 33.182317 -4.209936 -45.104288 4.004262 -114.540149 85.398005 -110.410602 -0.587116 -8.753374 -3.207210 0.611391 -1.083777 0.286763 0.697018 -41.254869 5.708885 70.482640 84.780493 60.275295 -3.921902 -12.135677 11.229081 0.079252 1.069200 -0.036412
-4.943272 52.171087 30.768893 169.393724 -36.636584 -1.657812 5.105828 25.597006 3.583861 0.638808 4.260095 0.595539 1.035995 6.761650 0.981918 3.735099 21.038374 3.551405 7.182960 18.283010 0.787580 12.909140 -1.549136 -0.891365 -5.663622 1.141190 -2.838670 -3.167152 -8.542489 0.453505 -157.706193 -67.244983 174.195714 4.208963 2.206601 22.229131 -12.202696 3.539077 0.648408 -0.917394 -39.732317 8.377899 -124.160727 -58.285076 127.147753 -9.335900 -31.495003 33.649973 -4.210880 -45.076273 4.023955 -114.690057 85.405803 -110.554924 -0.581033 -8.764753 -3.204485 0.600196 -1.078101 0.280739 0.680438 -41.236741 5.737124 70.550821 84.837049 60.343595 -3.905796 -12.148261 11.263924 0.091642 1.069665 -0.037014
-4.947863 52.165679 30.757916 169.396020 -36.636887 -1.665447 5.098729 25.578629 3.598521 0.644114 4.273538 0.587227 1.032693 6.738267 0.995225 3.742776 21.029698 3.563129 7.184873 18.366828 0.782163 12.915775 -1.391986 -0.896252 -5.657061 1.183004 -2.833106 -3.134811 -8.541208 0.398232 -157.825878 -67.207263 174.356372 4.174543 2.151535 22.029113 -12.168735 3.652804 0.675989 -0.870790 -39.589285 8.432630 -124.678068 -57.918289 127.643199 -9.515251 -32.141561 33.972694 -4.193740 -45.074592 4.011923 -114.848387 85.408723 -110.697025 -0.577330 -8.786173 -3.207229 0.596991 -1.063615 0.280901 0.643835 -41.240006 5.748229 70.738169 84.853877 60.514075 -3.905814 -12.160738 11.295860 0.093817 1.077080 -0.039353
-4.952343 52.160495 30.745949 169.379413 -36.645809 -1.656451 5.102153 25.568474 3.606101 0.645492 4.270416 0.591907 1.031414 6.732036 0.994190 3.751717 20.992940 3.593701 7.177350 18.470005 0.754156 12.924090 -1.255494 -0.910814 -5.643369 1.250228 -2.844971 -3.121132 -8.543018 0.345231 -157.795779 -67.172679 174.358858 4.142458 2.088193 21.865539 -12.143193 3.777462 0.662891 -0.800154 -39.421960 8.512678 -125.184660 -57.567286 128.093453 -9.660872 -32.648056 34.174411 -4.131035 -45.065495 3.976091 -114.988351 85.405632 -110.804759 -0.566973 -8.816159 -3.215152 0.590605 -1.041052 0.286539 0.627371 -41.233210 5.752515 70.938519 84.868322 60.699200 -3.917008 -12.168171 11.341622 0.113343 1.077162 -0.063088
-4.953421 52.155477 30.734700 169.353533 -36.659143 -1.654898 5.119846 25.562780 3.626956 0.645914 4.263775 0.594172 1.032082 6.731322 0.995292 3.757009 20.975804 3.607176 7.173103 18.536254 0.735950 12.933440 -1.130776 -0.934863 -5.613993 1.298837 -2.836975 -3.120874 -8.548259 0.296988 -157.661320 -67.143046 174.256764 4.095415 2.023431 21.720828 -12.131487 3.849095 0.650398 -0.687263 -39.218543 8.615825 -125.760239 -57.285937 128.556017 -9.777135 -33.079141 34.279051 -4.098368 -45.053247 3.978134 -115.091443 85.401078 -110.891678 -0.557106 -8.830234 -3.218183 0.582632 -1.031233 0.281525 0.610436 -41.223156 5.771287 71.158429 84.892392 60.912656 -3.902280 -12.195458 11.345427 0.117656 1.087457 -0.050741
